Abduction_states
version=1
nRows=15
nColumns=41
inDegrees=yes

# SIMM Motion File Header:
name Abduction_states
datacolumns 41
datarows 15
otherdata 1
range 0.00000000 1.50437546
endheader
time	/jointset/ground_thorax/thorax_tilt/value	/jointset/ground_thorax/thorax_tilt/speed	/jointset/ground_thorax/thorax_list/value	/jointset/ground_thorax/thorax_list/speed	/jointset/ground_thorax/thorax_rotation/value	/jointset/ground_thorax/thorax_rotation/speed	/jointset/ground_thorax/thorax_tx/value	/jointset/ground_thorax/thorax_tx/speed	/jointset/ground_thorax/thorax_ty/value	/jointset/ground_thorax/thorax_ty/speed	/jointset/ground_thorax/thorax_tz/value	/jointset/ground_thorax/thorax_tz/speed	/jointset/sternoclavicular/sternoclavicular_r2/value	/jointset/sternoclavicular/sternoclavicular_r2/speed	/jointset/sternoclavicular/sternoclavicular_r3/value	/jointset/sternoclavicular/sternoclavicular_r3/speed	/jointset/unrotscap/unrotscap_r3/value	/jointset/unrotscap/unrotscap_r3/speed	/jointset/unrotscap/unrotscap_r2/value	/jointset/unrotscap/unrotscap_r2/speed	/jointset/acromioclavicular/acromioclavicular_r2/value	/jointset/acromioclavicular/acromioclavicular_r2/speed	/jointset/acromioclavicular/acromioclavicular_r3/value	/jointset/acromioclavicular/acromioclavicular_r3/speed	/jointset/acromioclavicular/acromioclavicular_r1/value	/jointset/acromioclavicular/acromioclavicular_r1/speed	/jointset/unrothum/unrothum_r1/value	/jointset/unrothum/unrothum_r1/speed	/jointset/unrothum/unrothum_r3/value	/jointset/unrothum/unrothum_r3/speed	/jointset/unrothum/unrothum_r2/value	/jointset/unrothum/unrothum_r2/speed	/jointset/shoulder0/elv_angle/value	/jointset/shoulder0/elv_angle/speed	/jointset/shoulder1/shoulder_elv/value	/jointset/shoulder1/shoulder_elv/speed	/jointset/shoulder1/shoulder1_r2/value	/jointset/shoulder1/shoulder1_r2/speed	/jointset/shoulder2/shoulder_rot/value	/jointset/shoulder2/shoulder_rot/speed
      0.00000000	      0.00000000	      0.00000000	      0.00000000	      0.00000000	      0.00000000	      0.00000000	      0.00000000	      0.00000000	      0.00000000	      0.00000000	      0.00000000	      0.00000000	      0.00000000	      0.00000000	     -0.00000000	      0.00000000	      0.00000000	      0.00000000	     -0.00000000	      0.00000000	      0.00000000	      0.00000000	     -0.00000000	      0.00000000	     -0.00000000	      0.00000000	      0.00000000	      0.00000000	      0.00000000	      0.00000000	     -0.00000000	      0.00000000	     30.00000000	      0.00000000	     -0.00000000	      0.00000000	    -30.00000000	      0.00000000	      0.00000000	      0.00000000
      0.01000000	     -0.00000000	     -0.00000000	     -0.00000000	     -0.00000000	      0.00000000	      0.00000000	      0.00000000	      0.00000000	      0.00000000	      0.00000000	     -0.00000000	     -0.00000000	     -0.00065188	     -0.13035654	      0.00027611	      0.05521283	     -0.00027611	     -0.05521283	      0.00065188	      0.13035654	     -0.00013199	     -0.02639434	      0.00106670	      0.21330696	      0.00047949	      0.09588217	     -0.00047949	     -0.09588217	     -0.00106670	     -0.21330696	      0.00013199	      0.02639434	     30.00000000	     -0.00000000	      0.00269376	      0.53866848	    -30.00000000	     -0.00000000	     -0.00000000	     -0.00000000
      0.06000000	     -0.00000000	      0.00000000	     -0.00000000	     -0.00000000	      0.00000000	      0.00000000	      0.00000000	      0.00000000	      0.00000000	      0.00000000	     -0.00000000	     -0.00000000	     -0.02343108	     -0.78030080	      0.00992429	      0.33049833	     -0.00992429	     -0.33049833	      0.02343108	      0.78030080	     -0.00474428	     -0.15799382	      0.03834110	      1.27683346	      0.01723445	      0.57394076	     -0.01723445	     -0.57394076	     -0.03834110	     -1.27683346	      0.00474428	      0.15799382	     30.00000000	     -0.00000000	      0.09682356	      3.22441400	    -30.00000000	     -0.00000000	     -0.00000000	     -0.00000000
      0.31000000	     -0.00000000	     -0.00000000	      0.00000000	      0.00000000	     -0.00000000	     -0.00000000	      0.00000000	      0.00000000	      0.00000000	      0.00000000	      0.00000000	      0.00000000	     -0.62058149	     -3.98418273	      0.26284882	      1.68751043	     -0.26284882	     -1.68751043	      0.62058149	      3.98418273	     -0.12565416	     -0.80670975	      1.01547918	      6.51945740	      0.45646117	      2.93051717	     -0.45646117	     -2.93051717	     -1.01547918	     -6.51945740	      0.12565416	      0.80670975	     30.00000000	      0.00000000	      2.56441062	     16.46372091	    -30.00000000	     -0.00000000	      0.00000000	      0.00000000
      0.53841257	     -0.00000000	     -0.00000000	      0.00000000	      0.00000000	     -0.00000000	     -0.00000000	      0.00000000	      0.00000000	      0.00000000	      0.00000000	      0.00000000	      0.00000000	     -1.85852160	     -6.84467692	      0.78718141	      2.89907981	     -0.78718141	     -2.89907981	      1.85852160	      6.84467692	     -0.37630992	     -1.38589717	      3.04116383	     11.20018398	      1.36701297	      5.03451889	     -1.36701297	     -5.03451889	     -3.04116383	    -11.20018398	      0.37630992	      1.38589717	     30.00000000	      0.00000000	      7.67991405	     28.28405678	    -30.00000000	      0.00000000	      0.00000000	      0.00000000
      0.71327850	     -0.00000000	     -0.00000000	      0.00000000	      0.00000000	     -0.00000000	     -0.00000000	      0.00000000	      0.00000000	      0.00000000	      0.00000000	      0.00000000	     -0.00000000	     -3.24364571	     -8.99109351	      1.37385415	      3.80819985	     -1.37385415	     -3.80819985	      3.24364571	      8.99109351	     -0.65676722	     -1.82049953	      5.30769081	     14.71244044	      2.38582417	      6.61328952	     -2.38582417	     -6.61328952	     -5.30769081	    -14.71244044	      0.65676722	      1.82049953	     30.00000000	     -0.00000000	     13.40362162	     37.15363083	    -30.00000000	     -0.00000000	      0.00000000	      0.00000000
      0.83191572	     -0.00000000	     -0.00000000	      0.00000000	      0.00000000	     -0.00000000	     -0.00000000	      0.00000000	      0.00000000	      0.00000000	      0.00000000	     -0.00000000	     -0.00000000	     -4.39558086	    -10.42535302	      1.86175913	      4.41568401	     -1.86175913	     -4.41568401	      4.39558086	     10.42535302	     -0.89000886	     -2.11090567	      7.19264254	     17.05936939	      3.23311606	      7.66824167	     -3.23311606	     -7.66824167	     -7.19264254	    -17.05936939	      0.89000886	      2.11090567	     30.00000000	      0.00000000	     18.16372929	     43.08037914	    -30.00000000	     -0.00000000	      0.00000000	      0.00000000
      0.94796258	     -0.00000000	     -0.00000000	      0.00000000	      0.00000000	     -0.00000000	     -0.00000000	      0.00000000	      0.00000000	      0.00000000	      0.00000000	     -0.00000000	     -0.00000000	     -5.68595311	    -11.81041065	      2.40829948	      5.00232859	     -2.40829948	     -5.00232859	      5.68595311	     11.81041065	     -1.15128098	     -2.39134950	      9.30412373	     19.32578758	      4.18223368	      8.68700397	     -4.18223368	     -8.68700397	     -9.30412373	    -19.32578758	      1.15128098	      2.39134950	     30.00000000	     -0.00000000	     23.49589654	     48.80381198	    -30.00000000	      0.00000000	      0.00000000	     -0.00000000
      1.06773098	     -0.00000000	     -0.00000000	      0.00000000	      0.00000000	     -0.00000000	     -0.00000000	      0.00000000	      0.00000000	      0.00000000	      0.00000000	     -0.00000000	     -0.00000000	     -7.18505328	    -13.21870811	      3.04324706	      5.59881646	     -3.04324706	     -5.59881646	      7.18505328	     13.21870811	     -1.45481593	     -2.67649890	     11.75715372	     21.63023392	      5.28487859	      9.72286004	     -5.28487859	     -9.72286004	    -11.75715372	    -21.63023392	      1.45481593	      2.67649890	     30.00000000	      0.00000000	     29.69058401	     54.62327809	    -30.00000000	     -0.00000000	      0.00000000	      0.00000000
      1.17019229	     -0.00000000	     -0.00000000	      0.00000000	      0.00000000	     -0.00000000	     -0.00000000	      0.00000000	      0.00000000	      0.00000000	      0.00000000	     -0.00000000	     -0.00000000	     -8.60004768	    -14.39403516	      3.64257143	      6.09662913	     -3.64257143	     -6.09662913	      8.60004768	     14.39403516	     -1.74132131	     -2.91447688	     14.07255849	     23.55346262	      6.32566052	     10.58735756	     -6.32566052	    -10.58735756	    -14.07255849	    -23.55346262	      1.74132131	      2.91447688	     30.00000000	      0.00000000	     35.53772368	     59.48004741	    -30.00000000	      0.00000000	      0.00000000	      0.00000000
      1.25253079	     -0.00000000	     -0.00000000	      0.00000000	      0.00000000	     -0.00000000	     -0.00000000	      0.00000000	      0.00000000	      0.00000000	      0.00000000	     -0.00000000	     -0.00000000	     -9.82231462	    -15.27869768	      4.16026561	      6.47133013	     -4.16026561	     -6.47133013	      9.82231462	     15.27869768	     -1.98880360	     -3.09360167	     16.07259659	     25.00106683	      7.22468410	     11.23806033	     -7.22468410	    -11.23806033	    -16.07259659	    -25.00106683	      1.98880360	      3.09360167	     30.00000000	     -0.00000000	     40.58846134	     63.13571232	    -30.00000000	      0.00000000	      0.00000000	     -0.00000000
      1.32159860	     -0.00000000	     -0.00000000	      0.00000000	      0.00000000	     -0.00000000	     -0.00000000	      0.00000000	      0.00000000	      0.00000000	      0.00000000	     -0.00000000	     -0.00000000	    -10.89977093	    -15.88746784	      4.61662489	      6.72917623	     -4.61662489	     -6.72917623	     10.89977093	     15.88746784	     -2.20696490	     -3.21686430	     17.83567599	     25.99721870	      8.01719399	     11.68583381	     -8.01719399	    -11.68583381	    -17.83567599	    -25.99721870	      2.20696490	      3.21686430	     30.00000000	     -0.00000000	     45.04080230	     65.65131529	    -30.00000000	      0.00000000	      0.00000000	      0.00000000
      1.38252422	     -0.00000000	     -0.00000000	      0.00000000	      0.00000000	     -0.00000000	     -0.00000000	      0.00000000	      0.00000000	      0.00000000	      0.00000000	     -0.00000000	     -0.00000000	    -11.87781107	    -16.15533529	      5.03087620	      6.84263215	     -5.03087620	     -6.84263215	     11.87781107	     16.15533529	     -2.40499661	     -3.27110159	     19.43607723	     26.43553957	      8.73657952	     11.88286046	     -8.73657952	    -11.88286046	    -19.43607723	    -26.43553957	      2.40499661	      3.27110159	     30.00000000	     -0.00000000	     49.08232873	     66.75821607	    -30.00000000	      0.00000000	      0.00000000	     -0.00000000
      1.44344984	     -0.00000000	     -0.00000000	      0.00000000	      0.00000000	     -0.00000000	     -0.00000000	      0.00000000	     -0.00000000	      0.00000000	      0.00000000	     -0.00000000	     -0.00000000	    -12.85714901	    -15.86515050	      5.44567721	      6.71972366	     -5.44567721	     -6.71972366	     12.85714901	     15.86515050	     -2.60329110	     -3.21234552	     21.03860213	     25.96070005	      9.45691964	     11.66941856	     -9.45691964	    -11.66941856	    -21.03860213	    -25.96070005	      2.60329110	      3.21234552	     30.00000000	     -0.00000000	     53.12921808	     65.55909399	    -30.00000000	      0.00000000	      0.00000000	      0.00000000
      1.50437546	     -0.00000000	     -0.00000000	      0.00000000	      0.00000000	     -0.00000000	     -0.00000000	      0.00000000	     -0.00000000	      0.00000000	      0.00000000	     -0.00000000	     -0.00000000	    -13.79015994	    -14.54601005	      5.84085629	      6.16099847	     -5.84085629	     -6.16099847	     13.79015994	     14.54601005	     -2.79220538	     -2.94524847	     22.56532051	     23.80214445	     10.14318449	     10.69914084	    -10.14318449	    -10.69914084	    -22.56532051	    -23.80214445	      2.79220538	      2.94524847	     30.00000000	      0.00000000	     56.98467165	     60.10804878	    -30.00000000	     -0.00000000	      0.00000000	     -0.00000000
